<?xml version="1.0" standalone="no"?>
<!DOCTYPE svg PUBLIC "-//W3C//DTD SVG 20010904//EN"
 "http://www.w3.org/TR/2001/REC-SVG-20010904/DTD/svg10.dtd">
<svg version="1.0" xmlns="http://www.w3.org/2000/svg"
 width="512.000000pt" height="512.000000pt" viewBox="0 0 512.000000 512.000000"
 preserveAspectRatio="xMidYMid meet">

<g transform="translate(0.000000,512.000000) scale(0.100000,-0.100000)"
fill="#6926A9" stroke="none">
<path d="M2170 5105 c-245 -50 -455 -230 -540 -464 -47 -128 -54 -212 -36
-398 9 -88 16 -168 16 -177 0 -14 -24 -16 -217 -16 -294 0 -416 -20 -602 -96
-125 -51 -158 -98 -110 -158 27 -34 54 -33 137 3 183 79 251 92 549 98 l252 5
5 -23 c3 -13 28 -258 56 -544 46 -466 54 -529 80 -605 33 -99 80 -185 139
-252 23 -25 41 -49 41 -53 0 -3 -11 -21 -24 -38 -36 -48 -81 -144 -108 -227
-20 -65 -23 -95 -23 -225 1 -137 3 -157 28 -230 60 -172 178 -326 322 -420
190 -125 450 -158 667 -85 129 43 218 99 313 195 90 91 149 186 192 310 25 73
27 93 28 230 0 130 -3 160 -23 225 -27 83 -72 179 -108 227 -13 17 -24 35 -24
38 0 4 18 28 41 53 59 67 106 153 139 252 26 76 34 139 80 605 28 286 53 530
56 543 4 22 5 22 202 22 310 0 446 -26 639 -120 311 -153 527 -430 606 -775
18 -82 20 -132 24 -583 5 -519 -1 -629 -38 -774 -98 -384 -402 -694 -790 -804
-103 -29 -117 -37 -130 -72 -12 -31 13 -80 47 -92 45 -18 232 41 379 119 299
157 537 447 630 766 53 183 57 240 52 840 -4 604 -4 607 -72 795 -159 438
-537 755 -994 834 -68 11 -158 16 -318 16 -206 0 -223 1 -223 18 0 9 7 85 15
167 20 195 11 291 -42 425 -81 204 -273 376 -488 437 -81 23 -723 29 -825 8z
m822 -167 c211 -81 348 -242 384 -453 15 -82 13 -96 -61 -847 -41 -419 -82
-792 -91 -828 -23 -96 -70 -175 -156 -266 -95 -99 -97 -113 -33 -191 106 -129
150 -252 149 -413 0 -176 -56 -312 -179 -436 -125 -127 -267 -186 -445 -186
-178 0 -319 59 -446 187 -233 235 -242 595 -23 855 58 69 54 87 -40 186 -86
89 -130 163 -155 260 -8 32 -49 404 -91 825 -65 667 -74 776 -65 837 34 245
219 441 465 492 22 5 193 8 380 6 340 -2 340 -2 407 -28z"/>
<path d="M2219 4747 c-136 -38 -241 -153 -269 -294 -14 -71 133 -1553 161
-1629 39 -104 129 -188 235 -220 67 -20 362 -19 430 1 100 30 195 119 233 219
29 78 175 1558 160 1631 -22 117 -105 221 -217 273 l-57 27 -315 2 c-229 2
-327 -1 -361 -10z m686 -168 c69 -35 108 -92 113 -166 4 -60 -132 -1463 -147
-1520 -14 -51 -59 -100 -116 -128 -51 -26 -58 -26 -207 -23 -152 3 -156 4
-204 33 -38 23 -55 43 -76 85 -25 52 -30 89 -97 780 -39 399 -71 741 -71 761
0 83 77 179 162 200 18 4 159 7 313 6 280 -2 281 -2 330 -28z"/>
<path d="M2438 2341 c-253 -81 -369 -362 -247 -592 134 -251 475 -299 668 -94
151 160 158 396 16 562 -103 120 -286 172 -437 124z m242 -166 c85 -43 139
-130 140 -224 0 -76 -17 -125 -64 -178 -108 -123 -284 -123 -392 0 -131 149
-56 377 141 428 46 12 123 1 175 -26z"/>
<path d="M409 3705 c-14 -8 -51 -44 -83 -81 -162 -190 -252 -370 -303 -607
-16 -73 -18 -146 -18 -667 0 -529 2 -593 18 -668 57 -259 168 -466 347 -648
l80 -82 -35 -108 c-41 -124 -116 -286 -181 -391 -59 -95 -74 -133 -74 -189 0
-71 19 -121 67 -174 68 -76 103 -85 313 -84 189 1 290 17 448 70 284 95 557
299 705 527 l30 47 1018 0 c954 0 1018 1 1038 18 11 9 24 31 27 49 5 26 1 37
-19 57 l-26 26 -1054 0 c-827 0 -1057 -3 -1069 -12 -8 -7 -39 -48 -68 -92
-200 -301 -540 -498 -925 -536 -107 -11 -238 -6 -282 11 -25 9 -53 57 -53 91
0 13 20 56 45 96 115 185 233 469 252 608 l6 43 -100 98 c-149 146 -230 268
-293 441 -63 172 -65 201 -65 807 0 495 2 558 18 633 49 224 138 395 292 562
45 49 55 66 55 95 0 29 -6 39 -32 55 -39 23 -45 24 -79 5z"/>
</g>
</svg>
