<svg width="512" height="512" version="1.1" xmlns="http://www.w3.org/2000/svg"><path fill="rgb(193,103,81)" stroke="rgb(193,103,81)" stroke-width="1" opacity="0.9137254901960784" d="M 305.5 27 L 311 27.5 L 305.5 28 L 305.5 27 Z "></path><path fill="rgb(193,103,81)" stroke="rgb(193,103,81)" stroke-width="1" opacity="0.9137254901960784" d="M 299.5 28 L 302 28.5 L 299.5 29 L 299.5 28 Z "></path><path fill="rgb(193,103,81)" stroke="rgb(193,103,81)" stroke-width="1" opacity="0.9137254901960784" d="M 292.5 31 L 291.5 33 L 292.5 31 Z "></path><path fill="rgb(193,103,81)" stroke="rgb(193,103,81)" stroke-width="1" opacity="0.9137254901960784" d="M 289.5 33 L 283.5 40 L 289.5 33 Z "></path><path fill="rgb(193,103,81)" stroke="rgb(193,103,81)" stroke-width="1" opacity="0.9137254901960784" d="M 339.5 35 L 343.5 40 L 339.5 35 Z "></path><path fill="rgb(193,103,81)" stroke="rgb(193,103,81)" stroke-width="1" opacity="0.9137254901960784" d="M 282.5 41 L 282 42.5 L 279.5 48 L 279 46.5 L 282.5 41 Z "></path><path fill="rgb(193,103,81)" stroke="rgb(193,103,81)" stroke-width="1" opacity="0.9137254901960784" d="M 278.5 49 L 279 51.5 L 278 51.5 L 278.5 49 Z "></path><path fill="rgb(193,103,81)" stroke="rgb(193,103,81)" stroke-width="1" opacity="0.9137254901960784" d="M 277.5 54 L 278 65.5 L 277 65.5 L 277.5 54 Z "></path><path fill="rgb(193,103,81)" stroke="rgb(193,103,81)" stroke-width="1" opacity="0.9137254901960784" d="M 399.5 55 L 407 55.5 L 399.5 56 L 399.5 55 Z "></path><path fill="rgb(193,103,81)" stroke="rgb(193,103,81)" stroke-width="1" opacity="0.9137254901960784" d="M 392.5 56 L 396 56.5 L 392.5 57 L 392.5 56 Z "></path><path fill="rgb(193,103,81)" stroke="rgb(193,103,81)" stroke-width="1" opacity="0.9137254901960784" d="M 409.5 56 L 412 56.5 L 409.5 57 L 409.5 56 Z "></path><path fill="rgb(193,103,81)" stroke="rgb(193,103,81)" stroke-width="1" opacity="0.9137254901960784" d="M 413.5 57 L 417 58.5 L 415.5 59 L 413.5 57 Z "></path><path fill="rgb(193,103,81)" stroke="rgb(193,103,81)" stroke-width="1" opacity="0.9137254901960784" d="M 407.5 60 L 410 60.5 L 407.5 61 L 407.5 60 Z "></path><path fill="rgb(193,103,81)" stroke="rgb(193,103,81)" stroke-width="1" opacity="0.9137254901960784" d="M 376.5 61 L 378 61.5 L 374.5 63 L 374.5 62 L 376.5 61 Z "></path><path fill="rgb(193,103,81)" stroke="rgb(193,103,81)" stroke-width="1" opacity="0.9137254901960784" d="M 364.5 67 L 363.5 69 L 357.5 72 L 358.5 70 L 364.5 67 Z "></path><path fill="rgb(193,103,81)" stroke="rgb(193,103,81)" stroke-width="1" opacity="0.9137254901960784" d="M 278.5 69 L 279 72.5 L 278 72.5 L 278.5 69 Z "></path><path fill="rgb(193,103,81)" stroke="rgb(193,103,81)" stroke-width="1" opacity="0.9137254901960784" d="M 279.5 75 L 280 77.5 L 279 77.5 L 279.5 75 Z "></path><path fill="rgb(193,103,81)" stroke="rgb(193,103,81)" stroke-width="1" opacity="0.9137254901960784" d="M 280.5 80 L 281 82.5 L 280 82.5 L 280.5 80 Z "></path><path fill="rgb(193,103,81)" stroke="rgb(193,103,81)" stroke-width="1" opacity="0.9137254901960784" d="M 431.5 80 L 432 82.5 L 431 82.5 L 431.5 80 Z "></path><path fill="rgb(193,103,81)" stroke="rgb(193,103,81)" stroke-width="1" opacity="0.9137254901960784" d="M 335.5 82 L 331.5 87 L 335.5 82 Z "></path><path fill="rgb(193,103,81)" stroke="rgb(193,103,81)" stroke-width="1" opacity="0.9137254901960784" d="M 281.5 84 L 282 86.5 L 281 86.5 L 281.5 84 Z "></path><path fill="rgb(193,103,81)" stroke="rgb(193,103,81)" stroke-width="1" opacity="0.9137254901960784" d="M 342.5 85 L 345 86.5 L 344.5 91 L 344 86 L 342.5 85 Z "></path><path fill="rgb(193,103,81)" stroke="rgb(193,103,81)" stroke-width="1" opacity="0.9137254901960784" d="M 338.5 87 L 336.5 90 L 338.5 87 Z "></path><path fill="rgb(193,103,81)" stroke="rgb(193,103,81)" stroke-width="1" opacity="0.9137254901960784" d="M 366.5 88 L 369 88.5 L 366.5 89 L 366.5 88 Z "></path><path fill="rgb(193,103,81)" stroke="rgb(193,103,81)" stroke-width="1" opacity="0.9137254901960784" d="M 371.5 89 L 372.5 91 L 371.5 89 Z "></path><path fill="rgb(193,103,81)" stroke="rgb(193,103,81)" stroke-width="1" opacity="0.9137254901960784" d="M 357.5 92 L 356.5 94 L 357.5 92 Z "></path><path fill="rgb(193,103,81)" stroke="rgb(193,103,81)" stroke-width="1" opacity="0.9137254901960784" d="M 329.5 94 L 332 95.5 L 330.5 96 L 329.5 94 Z "></path><path fill="rgb(193,103,81)" stroke="rgb(193,103,81)" stroke-width="1" opacity="0.9137254901960784" d="M 343.5 94 L 344 96.5 L 343 96.5 L 343.5 94 Z "></path><path fill="rgb(193,103,81)" stroke="rgb(193,103,81)" stroke-width="1" opacity="0.9137254901960784" d="M 318.5 95 Q 326.7 96.8 331 102.5 L 332 104.5 L 328.5 109 L 326.5 110 Q 318.6 107.9 315 101.5 L 316 96 L 318.5 95 Z "></path><path fill="rgb(193,103,81)" stroke="rgb(193,103,81)" stroke-width="1" opacity="0.9137254901960784" d="M 361.5 95 L 357.5 100 L 361.5 95 Z "></path><path fill="rgb(193,103,81)" stroke="rgb(193,103,81)" stroke-width="1" opacity="0.9137254901960784" d="M 356.5 101 L 355.5 103 L 354 102.5 L 356.5 101 Z "></path><path fill="rgb(193,103,81)" stroke="rgb(193,103,81)" stroke-width="1" opacity="0.9137254901960784" d="M 371.5 104 L 370.5 106 L 371.5 104 Z "></path><path fill="rgb(193,103,81)" stroke="rgb(193,103,81)" stroke-width="1" opacity="0.9137254901960784" d="M 360.5 117 L 363.5 117 L 375 123.5 L 375 126.5 L 370.5 131 Q 363.1 128.4 359 122.5 L 358 119.5 L 360.5 117 Z "></path><path fill="rgb(193,103,81)" stroke="rgb(193,103,81)" stroke-width="1" opacity="0.9137254901960784" d="M 419.5 117 L 416.5 121 L 419.5 117 Z "></path><path fill="rgb(193,103,81)" stroke="rgb(193,103,81)" stroke-width="1" opacity="0.9137254901960784" d="M 294.5 120 L 301 132.5 L 299 131.5 L 294 121.5 L 294.5 120 Z "></path><path fill="rgb(193,103,81)" stroke="rgb(193,103,81)" stroke-width="1" opacity="0.9137254901960784" d="M 350.5 129 L 353 129.5 L 350.5 130 L 350.5 129 Z "></path><path fill="rgb(193,103,81)" stroke="rgb(193,103,81)" stroke-width="1" opacity="0.9137254901960784" d="M 405.5 129 L 404.5 131 L 405.5 129 Z "></path><path fill="rgb(193,103,81)" stroke="rgb(193,103,81)" stroke-width="1" opacity="0.9137254901960784" d="M 333.5 131 L 335.5 134 L 333.5 131 Z "></path><path fill="rgb(193,103,81)" stroke="rgb(193,103,81)" stroke-width="1" opacity="0.9137254901960784" d="M 302.5 136 L 306 141.5 L 304 140.5 L 302.5 136 Z "></path><path fill="rgb(193,103,81)" stroke="rgb(193,103,81)" stroke-width="1" opacity="0.9137254901960784" d="M 306.5 143 L 309 146.5 L 307 145.5 L 306.5 143 Z "></path><path fill="rgb(193,103,81)" stroke="rgb(193,103,81)" stroke-width="1" opacity="0.9137254901960784" d="M 310.5 150 L 313.5 154 L 310.5 150 Z "></path><path fill="rgb(193,103,81)" stroke="rgb(193,103,81)" stroke-width="1" opacity="0.9137254901960784" d="M 343.5 152 L 346 152.5 L 343.5 153 L 343.5 152 Z "></path><path fill="rgb(193,103,81)" stroke="rgb(193,103,81)" stroke-width="1" opacity="0.9137254901960784" d="M 335.5 153 L 339 153.5 L 335.5 154 L 335.5 153 Z "></path><path fill="rgb(193,103,81)" stroke="rgb(193,103,81)" stroke-width="1" opacity="0.9137254901960784" d="M 254.5 212 L 253.5 214 L 254.5 212 Z "></path><path fill="rgb(193,103,81)" stroke="rgb(193,103,81)" stroke-width="1" opacity="0.9137254901960784" d="M 305.5 244 L 304.5 246 L 305.5 244 Z "></path><path fill="rgb(193,103,81)" stroke="rgb(193,103,81)" stroke-width="1" opacity="0.9137254901960784" d="M 313.5 244 L 312.5 246 L 313.5 244 Z "></path><path fill="rgb(193,103,81)" stroke="rgb(193,103,81)" stroke-width="1" opacity="0.9137254901960784" d="M 300.5 250 L 299.5 252 L 300.5 250 Z "></path><path fill="rgb(193,103,81)" stroke="rgb(193,103,81)" stroke-width="1" opacity="0.9137254901960784" d="M 308.5 250 L 307.5 252 L 308.5 250 Z "></path><path fill="rgb(193,103,81)" stroke="rgb(193,103,81)" stroke-width="1" opacity="0.9137254901960784" d="M 295.5 256 L 294.5 258 L 295.5 256 Z "></path><path fill="rgb(193,103,81)" stroke="rgb(193,103,81)" stroke-width="1" opacity="0.9137254901960784" d="M 298.5 262 L 297.5 264 L 298.5 262 Z "></path><path fill="rgb(193,103,81)" stroke="rgb(193,103,81)" stroke-width="1" opacity="0.9137254901960784" d="M 289.5 263 L 288.5 265 L 289.5 263 Z "></path><path fill="rgb(193,103,81)" stroke="rgb(193,103,81)" stroke-width="1" opacity="0.9137254901960784" d="M 284.5 269 L 283.5 271 L 284.5 269 Z "></path><path fill="rgb(193,103,81)" stroke="rgb(193,103,81)" stroke-width="1" opacity="0.9137254901960784" d="M 291.5 270 L 290.5 272 L 291.5 270 Z "></path><path fill="rgb(193,103,81)" stroke="rgb(193,103,81)" stroke-width="1" opacity="0.9137254901960784" d="M 278.5 276 L 276.5 279 L 278.5 276 Z "></path><path fill="rgb(193,103,81)" stroke="rgb(193,103,81)" stroke-width="1" opacity="0.9137254901960784" d="M 284.5 278 L 282.5 281 L 284.5 278 Z "></path><path fill="rgb(193,103,81)" stroke="rgb(193,103,81)" stroke-width="1" opacity="0.9137254901960784" d="M 271.5 284 L 269.5 287 L 271.5 284 Z "></path><path fill="rgb(193,103,81)" stroke="rgb(193,103,81)" stroke-width="1" opacity="0.9137254901960784" d="M 276.5 287 L 275.5 289 L 276.5 287 Z "></path><path fill="rgb(193,103,81)" stroke="rgb(193,103,81)" stroke-width="1" opacity="0.9137254901960784" d="M 264.5 292 L 262.5 295 L 264.5 292 Z "></path><path fill="rgb(193,103,81)" stroke="rgb(193,103,81)" stroke-width="1" opacity="0.9137254901960784" d="M 267.5 297 L 266.5 299 L 267.5 297 Z "></path><path fill="rgb(193,103,81)" stroke="rgb(193,103,81)" stroke-width="1" opacity="0.9137254901960784" d="M 257.5 300 L 255.5 303 L 257.5 300 Z "></path><path fill="rgb(193,103,81)" stroke="rgb(193,103,81)" stroke-width="1" opacity="0.9137254901960784" d="M 259.5 306 L 257.5 309 L 259.5 306 Z "></path><path fill="rgb(193,103,81)" stroke="rgb(193,103,81)" stroke-width="1" opacity="0.9137254901960784" d="M 250.5 308 L 248.5 311 L 250.5 308 Z "></path><path fill="rgb(193,103,81)" stroke="rgb(193,103,81)" stroke-width="1" opacity="0.9137254901960784" d="M 242.5 317 L 240.5 320 L 242.5 317 Z "></path><path fill="rgb(193,103,81)" stroke="rgb(193,103,81)" stroke-width="1" opacity="0.9137254901960784" d="M 247.5 319 L 244.5 323 L 247.5 319 Z "></path><path fill="rgb(193,103,81)" stroke="rgb(193,103,81)" stroke-width="1" opacity="0.9137254901960784" d="M 91.5 325 L 90.5 327 L 91.5 325 Z "></path><path fill="rgb(193,103,81)" stroke="rgb(193,103,81)" stroke-width="1" opacity="0.9137254901960784" d="M 235.5 325 L 225.5 336 L 235.5 325 Z "></path><path fill="rgb(193,103,81)" stroke="rgb(193,103,81)" stroke-width="1" opacity="0.9137254901960784" d="M 97.5 327 L 100 327.5 L 97.5 328 L 97.5 327 Z "></path><path fill="rgb(193,103,81)" stroke="rgb(193,103,81)" stroke-width="1" opacity="0.9137254901960784" d="M 120.5 329 L 124 329.5 L 120.5 330 L 120.5 329 Z "></path><path fill="rgb(193,103,81)" stroke="rgb(193,103,81)" stroke-width="1" opacity="0.9137254901960784" d="M 135.5 330 L 138 330.5 L 135.5 331 L 135.5 330 Z "></path><path fill="rgb(193,103,81)" stroke="rgb(193,103,81)" stroke-width="1" opacity="0.9137254901960784" d="M 149.5 331 L 153 331.5 L 149.5 332 L 149.5 331 Z "></path><path fill="rgb(193,103,81)" stroke="rgb(193,103,81)" stroke-width="1" opacity="0.9137254901960784" d="M 164.5 332 L 167 332.5 L 164.5 333 L 164.5 332 Z "></path><path fill="rgb(193,103,81)" stroke="rgb(193,103,81)" stroke-width="1" opacity="0.9137254901960784" d="M 179.5 333 L 183 333.5 L 179.5 334 L 179.5 333 Z "></path><path fill="rgb(193,103,81)" stroke="rgb(193,103,81)" stroke-width="1" opacity="0.9137254901960784" d="M 194.5 334 L 198 334.5 L 194.5 335 L 194.5 334 Z "></path><path fill="rgb(193,103,81)" stroke="rgb(193,103,81)" stroke-width="1" opacity="0.9137254901960784" d="M 209.5 335 L 213 335.5 L 209.5 336 L 209.5 335 Z "></path><path fill="rgb(193,103,81)" stroke="rgb(193,103,81)" stroke-width="1" opacity="0.9137254901960784" d="M 130.5 336 L 133 336.5 L 130.5 337 L 130.5 336 Z "></path><path fill="rgb(193,103,81)" stroke="rgb(193,103,81)" stroke-width="1" opacity="0.9137254901960784" d="M 221.5 336 L 224 336.5 L 221.5 337 L 221.5 336 Z "></path><path fill="rgb(193,103,81)" stroke="rgb(193,103,81)" stroke-width="1" opacity="0.9137254901960784" d="M 231.5 336 L 228.5 340 L 231.5 336 Z "></path><path fill="rgb(193,103,81)" stroke="rgb(193,103,81)" stroke-width="1" opacity="0.9137254901960784" d="M 143.5 337 L 147 337.5 L 143.5 338 L 143.5 337 Z "></path><path fill="rgb(193,103,81)" stroke="rgb(193,103,81)" stroke-width="1" opacity="0.9137254901960784" d="M 158.5 338 L 162 338.5 L 158.5 339 L 158.5 338 Z "></path><path fill="rgb(193,103,81)" stroke="rgb(193,103,81)" stroke-width="1" opacity="0.9137254901960784" d="M 176.5 339 L 181 339.5 L 176.5 340 L 176.5 339 Z "></path><path fill="rgb(193,103,81)" stroke="rgb(193,103,81)" stroke-width="1" opacity="0.9137254901960784" d="M 198.5 340 L 203 340.5 L 198.5 341 L 198.5 340 Z "></path><path fill="rgb(193,103,81)" stroke="rgb(193,103,81)" stroke-width="1" opacity="0.9137254901960784" d="M 221.5 340 L 225 340.5 L 221.5 341 L 221.5 340 Z "></path><path fill="rgb(193,103,81)" stroke="rgb(193,103,81)" stroke-width="1" opacity="0.9137254901960784" d="M 336.5 380 L 342 380.5 L 336.5 381 L 336.5 380 Z "></path><path fill="rgb(193,103,81)" stroke="rgb(193,103,81)" stroke-width="1" opacity="0.9137254901960784" d="M 338.5 385 L 341 385.5 L 338.5 386 L 338.5 385 Z "></path><path fill="rgb(193,103,81)" stroke="rgb(193,103,81)" stroke-width="1" opacity="0.9137254901960784" d="M 348.5 386 L 351 386.5 L 348.5 387 L 348.5 386 Z "></path><path fill="rgb(193,103,81)" stroke="rgb(193,103,81)" stroke-width="1" opacity="0.9137254901960784" d="M 200.5 416 L 201.5 418 L 200.5 417 L 197 419.5 L 200.5 416 Z "></path><path fill="rgb(193,103,81)" stroke="rgb(193,103,81)" stroke-width="1" opacity="0.9137254901960784" d="M 193.5 424 L 192.5 426 L 193.5 424 Z "></path><path fill="rgb(193,103,81)" stroke="rgb(193,103,81)" stroke-width="1" opacity="0.9137254901960784" d="M 188.5 430 L 187.5 432 L 188.5 430 Z "></path><path fill="rgb(193,103,81)" stroke="rgb(193,103,81)" stroke-width="1" opacity="0.9137254901960784" d="M 184.5 435 L 183.5 437 L 184.5 435 Z "></path><path fill="rgb(193,103,81)" stroke="rgb(193,103,81)" stroke-width="1" opacity="0.9137254901960784" d="M 177.5 444 L 176.5 446 L 177.5 444 Z "></path><path fill="rgb(193,103,81)" stroke="rgb(193,103,81)" stroke-width="1" opacity="0.9137254901960784" d="M 178.5 450 L 177.5 452 L 178.5 450 Z "></path><path fill="rgb(193,103,81)" stroke="rgb(193,103,81)" stroke-width="1" opacity="0.9137254901960784" d="M 170.5 453 L 168.5 456 L 170.5 453 Z "></path><path fill="rgb(193,103,81)" stroke="rgb(193,103,81)" stroke-width="1" opacity="0.9137254901960784" d="M 173.5 456 L 171.5 459 L 173.5 456 Z "></path><path fill="rgb(193,103,81)" stroke="rgb(193,103,81)" stroke-width="1" opacity="0.9137254901960784" d="M 165.5 459 L 164.5 461 L 165.5 459 Z "></path><path fill="rgb(193,103,81)" stroke="rgb(193,103,81)" stroke-width="1" opacity="0.9137254901960784" d="M 167.5 463 L 164.5 467 L 167.5 463 Z "></path><path fill="rgb(193,103,81)" stroke="rgb(193,103,81)" stroke-width="1" opacity="0.9137254901960784" d="M 161.5 464 L 160.5 466 L 161.5 464 Z "></path><path fill="rgb(193,103,81)" stroke="rgb(193,103,81)" stroke-width="1" opacity="0.9137254901960784" d="M 157.5 469 L 156.5 471 L 157.5 469 Z "></path><path fill="rgb(193,103,81)" stroke="rgb(193,103,81)" stroke-width="1" opacity="0.9137254901960784" d="M 154.5 473 L 153.5 475 L 154.5 473 Z "></path><path fill="rgb(193,103,81)" stroke="rgb(193,103,81)" stroke-width="1" opacity="0.9137254901960784" d="M 149 480 L 151 480.5 L 149 481.5 L 149 480 Z "></path><path fill="rgb(252,143,129)" stroke="rgb(252,143,129)" stroke-width="1" opacity="0.996078431372549" d="M 311.5 27 Q 328.6 29.4 336 41.5 L 340 48.5 L 347 67.5 L 351.5 72 L 355.5 73 Q 369.2 63.7 386.5 58 L 396.5 56 L 408.5 56 L 414.5 58 L 417 60.5 L 427 80.5 L 428 95.5 L 425 104.5 L 417 119.5 L 409.5 127 Q 390.3 140.3 365.5 148 L 342.5 153 L 327.5 154 L 325.5 154 L 314.5 154 L 310 149.5 L 291 113.5 L 283 91.5 L 278 68.5 L 278 52.5 Q 281 39.5 290.5 33 L 298.5 29 L 310.5 28 L 311.5 27 Z M 408 60 L 408 61 L 410 61 L 408 60 Z M 343 79 L 336 82 Q 331 85 329 92 Q 328 95 331 96 L 334 95 L 335 92 Q 338 86 344 86 L 344 94 L 343 95 L 344 101 L 351 90 L 350 83 Q 349 78 343 79 Z M 367 88 L 358 92 L 352 101 L 356 103 L 357 101 Q 360 94 369 94 L 368 100 L 362 111 L 363 113 L 365 112 Q 372 108 374 100 L 373 91 L 367 88 Z M 319 95 L 316 96 L 315 102 Q 319 108 327 110 L 329 109 L 332 105 L 331 103 Q 327 97 319 95 Z M 361 117 L 358 120 L 359 123 Q 363 128 371 131 L 375 127 L 375 124 L 364 117 L 361 117 Z M 330 118 L 330 124 L 333 132 L 338 135 L 347 135 L 355 131 L 356 129 L 339 131 L 332 120 Q 333 117 330 118 Z "></path><path fill="rgb(56,35,31)" stroke="rgb(56,35,31)" stroke-width="1" opacity="0.9372549019607843" d="M 311.5 18 L 324.5 19 L 333.5 22 Q 344.8 27.2 352 36.5 Q 360 45.5 360.5 62 Q 370.8 52.8 386.5 49 L 395.5 47 L 411.5 47 Q 425.5 50 433 59.5 Q 439 66.5 441 77.5 L 441 92.5 Q 436.9 116.4 421.5 129 Q 402.6 145.6 375.5 154 L 344.5 161 L 318.5 162 Q 316.8 159.3 310.5 161 L 307 157.5 L 292 133.5 L 280 106.5 L 271 75.5 Q 272.3 70.8 270 69.5 L 270 50.5 Q 273.5 35 284.5 27 L 295.5 21 L 311.5 18 Z M 306 27 L 297 29 L 290 33 Q 279 40 277 55 L 278 73 L 286 103 Q 296 132 314 154 L 339 154 L 364 149 Q 383 143 400 134 L 417 121 Q 429 111 432 92 Q 433 75 427 67 L 421 60 L 407 55 L 393 56 L 382 59 L 355 73 L 352 67 L 350 51 L 344 40 Q 337 31 326 28 Q 318 25 306 27 Z "></path><path fill="rgb(56,35,31)" stroke="rgb(56,35,31)" stroke-width="1" opacity="0.9372549019607843" d="M 343.5 79 L 349 81.5 L 351 87.5 L 345 100 Q 342 101.3 343 97.5 L 345 86.5 L 342.5 85 L 336 89.5 L 332.5 95 L 329 93.5 Q 330.4 85.4 336.5 82 L 343.5 79 Z "></path><path fill="rgb(56,35,31)" stroke="rgb(56,35,31)" stroke-width="1" opacity="0.9372549019607843" d="M 363.5 89 Q 371.2 87.3 373 91.5 L 374 98.5 Q 371.5 106.5 365.5 111 L 362.5 113 L 362 111.5 L 368 100.5 L 369 94.5 L 366.5 93 Q 360 94.5 357 99.5 L 355.5 102 Q 351.3 103.3 353 98.5 L 359.5 91 L 363.5 89 Z "></path><path fill="rgb(56,35,31)" stroke="rgb(56,35,31)" stroke-width="1" opacity="0.9372549019607843" d="M 330.5 118 L 338.5 131 L 345.5 131 L 355.5 129 L 355.5 130 L 344.5 135 L 338.5 135 L 333 130.5 L 330 122.5 L 330.5 118 Z "></path><path fill="rgb(56,35,31)" stroke="rgb(56,35,31)" stroke-width="1" opacity="0.9372549019607843" d="M 266.5 146 Q 268.8 145.3 268 147.5 L 278 167 L 290.5 158 Q 293.5 155.2 299 156 L 299 157.5 L 285 172.5 L 291.5 177 L 302 180.5 Q 299.3 183.3 292.5 182 L 279 177 L 274 184.5 Q 278.7 189.3 286.5 191 L 296 191 L 294.5 194 Q 291 196.5 283.5 195 L 270.5 188 L 258 205.5 L 314.5 232 L 319 236.5 L 360 323.5 L 386 390.5 L 386 394 L 227.5 462 L 166.5 486 L 142.5 494 L 137 483.5 L 100 391.5 L 77 331.5 L 76 324.5 Q 96.4 280.4 122 241.5 L 163 181.5 L 175.5 167 L 179.5 166 Q 214.5 186.6 253 203 L 266 183.5 L 258 171.5 L 257 164.5 L 259 165.5 L 268.5 180 L 276 171.5 Q 267.6 162.4 265 147.5 L 266.5 146 Z M 179 172 L 166 193 Q 139 227 116 266 L 85 320 L 86 321 L 153 291 L 225 266 L 228 263 L 230 254 L 249 209 Q 211 194 179 172 Z M 255 212 L 237 250 L 234 261 L 234 262 L 275 248 L 301 237 Q 304 238 303 235 L 255 212 Z M 304 243 L 259 261 L 234 269 L 229 276 L 225 303 L 222 304 L 221 302 L 224 275 L 225 273 L 153 298 L 106 318 L 90 327 L 98 328 L 107 328 L 108 329 L 149 331 L 150 332 L 164 332 L 165 333 L 179 333 L 180 334 L 194 334 L 195 335 L 209 335 L 210 336 L 221 336 L 222 337 L 226 336 L 306 245 Q 307 242 304 243 Z M 314 244 L 297 265 L 244 324 L 228 340 Q 222 339 221 341 L 182 340 L 181 339 L 163 339 L 162 338 L 134 337 L 133 336 L 123 336 L 122 335 L 94 333 L 84 331 L 130 446 L 148 485 L 214 459 L 377 389 L 341 301 L 314 244 Z "></path><path fill="rgb(56,35,31)" stroke="rgb(56,35,31)" stroke-width="1" opacity="0.9372549019607843" d="M 313.5 380 L 354.5 381 L 369 384 Q 370.1 386.7 367.5 386 L 366.5 387 L 351.5 387 L 350.5 386 L 341.5 386 L 340.5 385 L 322.5 383 L 313.5 381 L 313.5 380 Z "></path><path fill="rgb(56,35,31)" stroke="rgb(56,35,31)" stroke-width="1" opacity="0.9372549019607843" d="M 201.5 416 L 201 417.5 L 185 442.5 L 151.5 480 L 150 479.5 L 189 429.5 L 201.5 416 Z "></path><path fill="rgb(0,0,0)" stroke="rgb(0,0,0)" stroke-width="1" opacity="0" d="M 0 0 L 512 0 L 512 512 L 0 512 L 0 0 Z M 312 18 L 296 21 L 285 27 Q 274 35 270 51 L 270 70 Q 272 71 271 76 L 280 107 L 292 134 L 307 158 L 311 161 Q 317 159 319 162 L 345 161 L 376 154 Q 403 146 422 129 Q 437 116 441 93 L 441 78 Q 439 67 433 60 Q 425 50 412 47 L 396 47 L 387 49 Q 371 53 361 62 Q 360 46 352 37 Q 345 27 334 22 L 325 19 L 312 18 Z M 267 146 L 265 148 Q 268 162 276 172 L 269 180 L 259 166 L 257 165 L 258 172 L 266 184 L 253 203 Q 215 187 180 166 L 176 167 L 163 182 L 122 242 Q 96 280 76 325 L 77 332 L 100 392 L 137 484 L 143 494 L 167 486 L 228 462 L 386 394 L 386 391 L 360 324 L 319 237 L 315 232 L 258 206 L 271 188 L 284 195 Q 291 197 295 194 L 296 191 L 287 191 Q 279 189 274 185 L 279 177 L 293 182 Q 299 183 302 181 L 292 177 L 285 173 L 299 158 L 299 156 Q 293 155 291 158 L 278 167 L 268 148 Q 269 145 267 146 Z "></path><path fill="rgb(191,214,111)" stroke="rgb(191,214,111)" stroke-width="1" opacity="0.9686274509803922" d="M 173 181 L 180 185.5 L 142 242.5 L 100 312.5 L 100.5 314 L 86 320 Q 102 286.8 122 256.5 L 173 181 Z "></path><path fill="rgb(191,214,111)" stroke="rgb(191,214,111)" stroke-width="1" opacity="0.9686274509803922" d="M 304.5 243 L 306 243.5 L 248 311.5 L 224.5 336 L 219 335.5 L 280 260.5 L 286 250 L 304.5 243 Z "></path><path fill="rgb(191,214,111)" stroke="rgb(191,214,111)" stroke-width="1" opacity="0.9686274509803922" d="M 254.5 262 L 253.5 264 L 230.5 274 L 231 272.5 L 232.5 270 L 254.5 262 Z "></path><path fill="rgb(191,214,111)" stroke="rgb(191,214,111)" stroke-width="1" opacity="0.9686274509803922" d="M 223.5 273 L 224 275.5 L 223 278 L 137.5 312 L 106.5 328 L 100.5 328 L 99.5 327 L 91 326.5 L 108.5 317 L 133.5 306 L 174.5 290 L 223.5 273 Z "></path><path fill="rgb(191,214,111)" stroke="rgb(191,214,111)" stroke-width="1" opacity="0.9686274509803922" d="M 222.5 282 L 223 284.5 L 222 284.5 L 222.5 282 Z "></path><path fill="rgb(191,214,111)" stroke="rgb(191,214,111)" stroke-width="1" opacity="0.9686274509803922" d="M 221.5 291 L 222 293.5 L 221 293.5 L 221.5 291 Z "></path><path fill="rgb(191,214,111)" stroke="rgb(191,214,111)" stroke-width="1" opacity="0.9686274509803922" d="M 224.5 303 L 223.5 305 L 224.5 303 Z "></path><path fill="rgb(191,214,111)" stroke="rgb(191,214,111)" stroke-width="1" opacity="0.9686274509803922" d="M 109.5 328 L 113 328.5 L 109.5 329 L 109.5 328 Z "></path><path fill="rgb(191,214,111)" stroke="rgb(191,214,111)" stroke-width="1" opacity="0.9686274509803922" d="M 124.5 329 L 128 329.5 L 124.5 330 L 124.5 329 Z "></path><path fill="rgb(191,214,111)" stroke="rgb(191,214,111)" stroke-width="1" opacity="0.9686274509803922" d="M 138.5 330 L 143 330.5 L 138.5 331 L 138.5 330 Z "></path><path fill="rgb(191,214,111)" stroke="rgb(191,214,111)" stroke-width="1" opacity="0.9686274509803922" d="M 84.5 331 L 93 333 L 109 361.5 L 133 417.5 L 154.5 461 Q 162.1 460.1 166 455.5 Q 177.5 431.5 196.5 415 Q 198.8 414.3 198 416.5 L 197 420.5 Q 180.9 437.6 168 457 Q 165.3 455.9 166 458.5 L 149 481.5 L 168 463.5 L 185.5 442 L 185 443.5 L 182 449.5 L 183.5 450 L 349 390.5 L 339 386.5 L 347.5 386 L 357.5 388 L 358.5 387 L 369 387 L 369.5 384 L 373 386.5 L 374 389.5 L 300.5 422 L 187.5 469 L 186 468.5 L 185.5 470 L 184 469.5 Q 184.8 471.8 182.5 471 L 181 470.5 L 180.5 472 L 178 471 L 177.5 473 L 175.5 472 L 175.5 474 L 172.5 473 L 172.5 475 L 169.5 474 L 165 476.5 L 165.5 478 L 163.5 478 L 147.5 485 L 84.5 331 Z "></path><path fill="rgb(191,214,111)" stroke="rgb(191,214,111)" stroke-width="1" opacity="0.9686274509803922" d="M 153.5 331 L 157 331.5 L 153.5 332 L 153.5 331 Z "></path><path fill="rgb(191,214,111)" stroke="rgb(191,214,111)" stroke-width="1" opacity="0.9686274509803922" d="M 167.5 332 L 171 332.5 L 167.5 333 L 167.5 332 Z "></path><path fill="rgb(191,214,111)" stroke="rgb(191,214,111)" stroke-width="1" opacity="0.9686274509803922" d="M 97.5 333 L 100 333.5 L 97.5 334 L 97.5 333 Z "></path><path fill="rgb(191,214,111)" stroke="rgb(191,214,111)" stroke-width="1" opacity="0.9686274509803922" d="M 183.5 333 L 187 333.5 L 183.5 334 L 183.5 333 Z "></path><path fill="rgb(191,214,111)" stroke="rgb(191,214,111)" stroke-width="1" opacity="0.9686274509803922" d="M 106.5 334 L 109 334.5 L 106.5 335 L 106.5 334 Z "></path><path fill="rgb(191,214,111)" stroke="rgb(191,214,111)" stroke-width="1" opacity="0.9686274509803922" d="M 198.5 334 L 203 334.5 L 198.5 335 L 198.5 334 Z "></path><path fill="rgb(191,214,111)" stroke="rgb(191,214,111)" stroke-width="1" opacity="0.9686274509803922" d="M 116.5 335 L 120 335.5 L 116.5 336 L 116.5 335 Z "></path><path fill="rgb(191,214,111)" stroke="rgb(191,214,111)" stroke-width="1" opacity="0.9686274509803922" d="M 213.5 335 L 218 335.5 L 213.5 336 L 213.5 335 Z "></path><path fill="rgb(191,214,111)" stroke="rgb(191,214,111)" stroke-width="1" opacity="0.9686274509803922" d="M 127.5 336 L 130 336.5 L 127.5 337 L 127.5 336 Z "></path><path fill="rgb(191,214,111)" stroke="rgb(191,214,111)" stroke-width="1" opacity="0.9686274509803922" d="M 140.5 337 L 143 337.5 L 140.5 338 L 140.5 337 Z "></path><path fill="rgb(191,214,111)" stroke="rgb(191,214,111)" stroke-width="1" opacity="0.9686274509803922" d="M 153.5 338 L 158 338.5 L 153.5 339 L 153.5 338 Z "></path><path fill="rgb(191,214,111)" stroke="rgb(191,214,111)" stroke-width="1" opacity="0.9686274509803922" d="M 171.5 339 L 176 339.5 L 171.5 340 L 171.5 339 Z "></path><path fill="rgb(191,214,111)" stroke="rgb(191,214,111)" stroke-width="1" opacity="0.9686274509803922" d="M 191.5 340 L 198 340.5 L 191.5 341 L 191.5 340 Z "></path><path fill="rgb(191,214,111)" stroke="rgb(191,214,111)" stroke-width="1" opacity="0.9686274509803922" d="M 316.5 379 L 321 379.5 L 316.5 380 L 316.5 379 Z "></path><path fill="rgb(191,214,111)" stroke="rgb(191,214,111)" stroke-width="1" opacity="0.9686274509803922" d="M 342.5 380 L 345 380.5 L 342.5 381 L 342.5 380 Z "></path><path fill="rgb(191,214,111)" stroke="rgb(191,214,111)" stroke-width="1" opacity="0.9686274509803922" d="M 201.5 415 Q 203.8 414.3 203 416.5 L 201.5 415 Z "></path><path fill="rgb(191,214,111)" stroke="rgb(191,214,111)" stroke-width="1" opacity="0.9686274509803922" d="M 187.5 439 L 186.5 441 L 187.5 439 Z "></path><path fill="rgb(214,230,165)" stroke="rgb(214,230,165)" stroke-width="1" opacity="0.996078431372549" d="M 316.5 27 Q 336.3 28.7 345 41.5 L 349 48.5 L 353 72 L 347 67.5 L 339 46.5 L 326.5 32 L 316.5 28 L 316.5 27 Z "></path><path fill="rgb(214,230,165)" stroke="rgb(214,230,165)" stroke-width="1" opacity="0.996078431372549" d="M 416.5 59 L 426 65.5 L 431 76.5 L 431 85.5 L 432 86.5 L 431 87.5 L 431 95.5 L 428 104.5 Q 424.3 113.3 417.5 119 L 418 117.5 L 427 99.5 L 428 84.5 L 416.5 59 Z "></path><path fill="rgb(214,230,165)" stroke="rgb(214,230,165)" stroke-width="1" opacity="0.996078431372549" d="M 178.5 173 Q 210.9 193.8 248 209 Q 249.5 212.8 246.5 212 L 181.5 186 L 174 180.5 L 178.5 173 Z "></path><path fill="rgb(214,230,165)" stroke="rgb(214,230,165)" stroke-width="1" opacity="0.996078431372549" d="M 254.5 213 L 302 235 Q 303.3 238.3 298.5 237 L 260.5 218 L 253 216 L 254.5 213 Z "></path><path fill="rgb(214,230,165)" stroke="rgb(214,230,165)" stroke-width="1" opacity="0.996078431372549" d="M 313.5 245 L 342 303.5 L 371 373.5 L 376 389 Q 371.9 390.7 373 386.5 L 370.5 384 L 364.5 382 L 349.5 381 L 348.5 380 L 346.5 381 L 345.5 380 L 321.5 380 L 313 377 L 312 372 L 320.5 372 L 328.5 374 L 344.5 374 L 345.5 375 Q 358.2 373.3 366.5 376 L 366 374.5 L 332 303.5 L 319 273.5 L 316 263.5 L 313.5 260 Q 283.7 296.2 250.5 329 L 235.5 341 L 230.5 342 L 229 339.5 Q 273 294 313.5 245 Z "></path><path fill="rgb(213,231,161)" stroke="rgb(213,231,161)" stroke-width="1" opacity="1" d="M 180.5 185 L 247 212.5 L 231 249.5 L 228 261.5 L 225.5 265 L 156.5 289 L 100 313 L 142 242.5 L 180.5 185 Z "></path><path fill="rgb(213,231,161)" stroke="rgb(213,231,161)" stroke-width="1" opacity="1" d="M 252 216 L 260.5 218 L 298 236 Q 299.1 238.7 296.5 238 Q 266.9 251.8 234 261 L 252 216 Z "></path><path fill="rgb(213,231,161)" stroke="rgb(213,231,161)" stroke-width="1" opacity="1" d="M 284.5 251 L 286 251.5 Q 253.9 295.4 218.5 336 L 217.5 335 L 171.5 333 L 170.5 332 L 128.5 330 L 127.5 329 L 113.5 329 L 107 327.5 L 144.5 309 L 223 278 Q 221.3 282.5 222 290.5 L 221 291.5 L 221 302.5 Q 223 307 225 303.5 L 229 277.5 L 231.5 273 L 247.5 267 L 257.5 261 L 284.5 251 Z "></path><path fill="rgb(213,231,161)" stroke="rgb(213,231,161)" stroke-width="1" opacity="1" d="M 313.5 260 L 338 316.5 L 367 375.5 L 363.5 376 L 362.5 375 L 328.5 374 L 320.5 372 L 312 372 L 313 377 L 318 378.5 L 312 380.5 L 314.5 382 L 335.5 385 L 349 390.5 L 182.5 450 L 183 448.5 L 186 441.5 L 203 415 L 197.5 419 L 197 417.5 L 198 415 L 196.5 415 L 188 423.5 L 174 440.5 L 163.5 458 L 154.5 461 L 133 417.5 L 109 361.5 L 93 333 Q 97.5 334.7 105.5 334 L 106.5 335 L 115.5 335 L 116.5 336 L 126.5 336 L 127.5 337 L 152.5 338 L 153.5 339 L 190.5 340 L 191.5 341 L 226.5 341 L 228.5 340 Q 229.3 342.8 233.5 342 Q 251.2 330.2 265 314.5 L 313.5 260 Z "></path><path fill="rgb(213,231,161)" stroke="rgb(213,231,161)" stroke-width="1" opacity="1" d="M 175.5 472 L 177 472.5 L 164.5 478 L 166.5 475 L 175.5 472 Z "></path></svg>